<svg width="18" height="18" viewBox="0 0 18 18" fill="none" xmlns="http://www.w3.org/2000/svg">
<path fill-rule="evenodd" clip-rule="evenodd" d="M2.97112 4.75307C2.45711 5.63423 2.28794 6.85693 2.60376 8.1202C2.71741 8.57479 3.04781 9.15923 3.57143 9.8319C4.0849 10.4915 4.74028 11.1811 5.43442 11.8427C6.81077 13.1545 8.29197 14.3118 8.99991 14.8469C9.70785 14.3118 11.189 13.1545 12.5654 11.8427C13.2595 11.1811 13.9149 10.4915 14.4284 9.8319C14.952 9.15923 15.2824 8.57479 15.3961 8.1202C15.7119 6.85693 15.5427 5.63424 15.0287 4.75307C14.527 3.89299 13.6892 3.33366 12.5416 3.33366C11.5431 3.33366 10.8394 4.07194 10.3418 5.0671C10.1027 5.54528 9.9402 6.0306 9.83735 6.40085C9.7863 6.58462 9.75086 6.73674 9.72849 6.84113C9.64923 7.21102 9.22254 7.22949 8.99991 7.22949C8.77729 7.22949 8.34985 7.20757 8.27133 6.84113C8.24896 6.73674 8.21351 6.58462 8.16247 6.40085C8.05962 6.0306 7.8971 5.54528 7.65801 5.0671C7.16043 4.07194 6.45669 3.33366 5.45823 3.33366C4.3106 3.33366 3.47283 3.89299 2.97112 4.75307ZM8.99991 4.58749C9.02407 4.5363 9.04899 4.48495 9.07469 4.43355C9.63962 3.30371 10.7067 1.91699 12.5416 1.91699C14.2273 1.91699 15.5145 2.77433 16.2524 4.03925C16.978 5.28308 17.163 6.89372 16.7704 8.46379C16.5845 9.20766 16.1083 9.9801 15.5463 10.7021C14.9741 11.4372 14.2647 12.1801 13.5428 12.8682C12.0983 14.245 10.5552 15.4477 9.83646 15.9904C9.34014 16.3651 8.65967 16.3651 8.16336 15.9904C7.44464 15.4477 5.90154 14.245 4.457 12.8682C3.73511 12.1801 3.02573 11.4372 2.45354 10.7021C1.89151 9.9801 1.41536 9.20765 1.22939 8.46379C0.836875 6.89372 1.02187 5.28308 1.74744 4.03925C2.48531 2.77433 3.77253 1.91699 5.45823 1.91699C7.2931 1.91699 8.36019 3.30371 8.92512 4.43355C8.95082 4.48495 8.97574 4.5363 8.99991 4.58749Z" fill="#94897C"/>
</svg>
